ffmpeg started on 2025-05-26 at 18:38:22
Report written to "D:\Convert\FFMetrics\reports\ssim_report-6.txt"
Log level: 32
Command line:
ffmpeg -hide_banner -nostdin -i "G:\\\xc0\xed\xe8\xec\xe5\\\xce\xed\xe3\xee\xe8\xed\xe3\xe8\\!_34_\xc2\xe5\xf1\xed\xe0_2024\\DreamCast\\\xc7\xe0\xe1\xe2\xe5\xed\xe8\xe5 \xe1\xfd\xf2\xf2\xe5\xf0\xe8\\[DC] Boukyaku Battery - 04_Telegram_HEVC.mkv" -i "G:\\\xc0\xed\xe8\xec\xe5\\\xce\xed\xe3\xee\xe8\xed\xe3\xe8\\!_34_\xc2\xe5\xf1\xed\xe0_2024\\DreamCast\\\xc7\xe0\xe1\xe2\xe5\xed\xe8\xe5 \xe1\xfd\xf2\xf2\xe5\xf0\xe8\\[DC] Boukyaku Battery - 04_Telegram.mp4" -lavfi "[0:v]settb=AVTB,setpts=PTS-STARTPTS,format=pix_fmts=yuv420p10,fps=24000/1001,scale=1920:1080:flags=bicubic[main];[1:v]settb=AVTB,setpts=PTS-STARTPTS,format=pix_fmts=yuv420p,fps=24000/1001,scale=1920:1080:flags=bicubic[ref];[main][ref]ssim=eof_action=endall:stats_file='D\\:/Convert/FFMetrics/logs/ssim_logfile-6.txt'" -f null -
Input #0, matroska,webm, from 'G:\Аниме\Онгоинги\!_34_Весна_2024\DreamCast\Забвение бэттери\[DC] Boukyaku Battery - 04_Telegram_HEVC.mkv':
  Metadata:
    COMPATIBLE_BRANDS: isomiso2avc1mp41
    MAJOR_BRAND     : isom
    MINOR_VERSION   : 512
    ENCODER         : Lavf61.7.100
  Duration: 00:24:01.71, start: -0.021000, bitrate: 1325 kb/s
  Stream #0:0: Video: hevc (Main 10), yuv420p10le(tv, bt709, progressive), 1920x1080 [SAR 1:1 DAR 16:9], 23.98 fps, 23.98 tbr, 1k tbn (default)
      Metadata:
        HANDLER_NAME    : VideoHandler
        VENDOR_ID       : [0][0][0][0]
        ENCODER         : Lavc61.19.100 libx265
        BPS             : 1128022
        DURATION        : 00:24:01.523708333
        NUMBER_OF_FRAMES: 34562
        NUMBER_OF_BYTES : 203258864
        _STATISTICS_WRITING_APP: mkvpropedit v66.0.0 ('Josie') 64-bit
        _STATISTICS_WRITING_DATE_UTC: 2025-05-26 10:40:40
        _STATISTICS_TAGS: BPS DURATION NUMBER_OF_FRAMES NUMBER_OF_BYTES
  Stream #0:1: Audio: aac (LC), 48000 Hz, stereo, fltp (default)
      Metadata:
        HANDLER_NAME    : SoundHandler
        VENDOR_ID       : [0][0][0][0]
        ENCODER         : Lavc61.19.100 aac
        BPS             : 193424
        DURATION        : 00:24:01.706000000
        NUMBER_OF_FRAMES: 67581
        NUMBER_OF_BYTES : 34857692
        _STATISTICS_WRITING_APP: mkvpropedit v66.0.0 ('Josie') 64-bit
        _STATISTICS_WRITING_DATE_UTC: 2025-05-26 10:40:40
        _STATISTICS_TAGS: BPS DURATION NUMBER_OF_FRAMES NUMBER_OF_BYTES
Input #1, mov,mp4,m4a,3gp,3g2,mj2, from 'G:\Аниме\Онгоинги\!_34_Весна_2024\DreamCast\Забвение бэттери\[DC] Boukyaku Battery - 04_Telegram.mp4':
  Metadata:
    major_brand     : isom
    minor_version   : 512
    compatible_brands: isomiso2avc1mp41
    encoder         : Lavf60.16.100
  Duration: 00:24:01.65, start: 0.000000, bitrate: 3929 kb/s
  Stream #1:0[0x1](und): Video: h264 (High) (avc1 / 0x31637661), yuv420p(tv, bt709, progressive), 1920x1080 [SAR 1:1 DAR 16:9], 3782 kb/s, 23.98 fps, 23.98 tbr, 24k tbn (default)
      Metadata:
        handler_name    : VideoHandler
        vendor_id       : [0][0][0][0]
        encoder         : Lavc60.31.102 h264_qsv
  Stream #1:1[0x2](und): Audio: aac (HE-AACv2) (mp4a / 0x6134706D), 48000 Hz, stereo, fltp, 144 kb/s (default)
      Metadata:
        handler_name    : SoundHandler
        vendor_id       : [0][0][0][0]
Stream mapping:
  Stream #0:0 (hevc) -> settb:default
  Stream #1:0 (h264) -> settb:default
  ssim:default -> Stream #0:0 (wrapped_avframe)
  Stream #0:1 -> #0:1 (aac (native) -> pcm_s16le (native))
Output #0, null, to 'pipe:':
  Metadata:
    COMPATIBLE_BRANDS: isomiso2avc1mp41
    MAJOR_BRAND     : isom
    MINOR_VERSION   : 512
    encoder         : Lavf61.7.100
  Stream #0:0: Video: wrapped_avframe, yuv420p10le(tv, bt709, progressive), 1920x1080 [SAR 1:1 DAR 16:9], q=2-31, 200 kb/s, 23.98 fps, 23.98 tbn
      Metadata:
        encoder         : Lavc61.19.100 wrapped_avframe
  Stream #0:1: Audio: pcm_s16le, 48000 Hz, stereo, s16, 1536 kb/s (default)
      Metadata:
        HANDLER_NAME    : SoundHandler
        VENDOR_ID       : [0][0][0][0]
        _STATISTICS_TAGS: BPS DURATION NUMBER_OF_FRAMES NUMBER_OF_BYTES
        BPS             : 193424
        DURATION        : 00:24:01.706000000
        NUMBER_OF_FRAMES: 67581
        NUMBER_OF_BYTES : 34857692
        _STATISTICS_WRITING_APP: mkvpropedit v66.0.0 ('Josie') 64-bit
        _STATISTICS_WRITING_DATE_UTC: 2025-05-26 10:40:40
        encoder         : Lavc61.19.100 pcm_s16le
frame=  181 fps=0.0 q=-0.0 size=N/A time=00:00:07.54 bitrate=N/A speed=14.7x    frame=  419 fps=411 q=-0.0 size=N/A time=00:00:17.47 bitrate=N/A speed=17.1x    frame=  660 fps=428 q=-0.0 size=N/A time=00:00:27.52 bitrate=N/A speed=17.9x    frame=  865 fps=422 q=-0.0 size=N/A time=00:00:36.07 bitrate=N/A speed=17.6x    frame= 1118 fps=435 q=-0.0 size=N/A time=00:00:46.62 bitrate=N/A speed=18.1x    frame= 1360 fps=440 q=-0.0 size=N/A time=00:00:56.72 bitrate=N/A speed=18.3x    frame= 1566 fps=435 q=-0.0 size=N/A time=00:01:05.31 bitrate=N/A speed=18.1x    frame= 1768 fps=429 q=-0.0 size=N/A time=00:01:13.74 bitrate=N/A speed=17.9x    frame= 1976 fps=426 q=-0.0 size=N/A time=00:01:22.41 bitrate=N/A speed=17.8x    frame= 2191 fps=425 q=-0.0 size=N/A time=00:01:31.38 bitrate=N/A speed=17.7x    frame= 2380 fps=420 q=-0.0 size=N/A time=00:01:39.26 bitrate=N/A speed=17.5x    frame= 2581 fps=417 q=-0.0 size=N/A time=00:01:47.64 bitrate=N/A speed=17.4x    frame= 2793 fps=417 q=-0.0 size=N/A time=00:01:56.49 bitrate=N/A speed=17.4x    frame= 2986 fps=414 q=-0.0 size=N/A time=00:02:04.54 bitrate=N/A speed=17.3x    frame= 3208 fps=415 q=-0.0 size=N/A time=00:02:13.80 bitrate=N/A speed=17.3x    frame= 3450 fps=418 q=-0.0 size=N/A time=00:02:23.89 bitrate=N/A speed=17.4x    frame= 3661 fps=418 q=-0.0 size=N/A time=00:02:32.69 bitrate=N/A speed=17.4x    frame= 3886 fps=419 q=-0.0 size=N/A time=00:02:42.07 bitrate=N/A speed=17.5x    frame= 4151 fps=424 q=-0.0 size=N/A time=00:02:53.13 bitrate=N/A speed=17.7x    frame= 4412 fps=428 q=-0.0 size=N/A time=00:03:04.01 bitrate=N/A speed=17.8x    frame= 4632 fps=428 q=-0.0 size=N/A time=00:03:13.19 bitrate=N/A speed=17.8x    frame= 4865 fps=429 q=-0.0 size=N/A time=00:03:22.91 bitrate=N/A speed=17.9x    frame= 5097 fps=430 q=-0.0 size=N/A time=00:03:32.58 bitrate=N/A speed=17.9x    frame= 5371 fps=434 q=-0.0 size=N/A time=00:03:44.01 bitrate=N/A speed=18.1x    frame= 5587 fps=434 q=-0.0 size=N/A time=00:03:53.02 bitrate=N/A speed=18.1x    frame= 5836 fps=435 q=-0.0 size=N/A time=00:04:03.40 bitrate=N/A speed=18.2x    frame= 6079 fps=437 q=-0.0 size=N/A time=00:04:13.54 bitrate=N/A speed=18.2x    frame= 6338 fps=439 q=-0.0 size=N/A time=00:04:24.34 bitrate=N/A speed=18.3x    frame= 6586 fps=441 q=-0.0 size=N/A time=00:04:34.69 bitrate=N/A speed=18.4x    frame= 6863 fps=444 q=-0.0 size=N/A time=00:04:46.24 bitrate=N/A speed=18.5x    frame= 7137 fps=447 q=-0.0 size=N/A time=00:04:57.67 bitrate=N/A speed=18.6x    frame= 7419 fps=450 q=-0.0 size=N/A time=00:05:09.43 bitrate=N/A speed=18.8x    frame= 7668 fps=451 q=-0.0 size=N/A time=00:05:19.81 bitrate=N/A speed=18.8x    frame= 7932 fps=453 q=-0.0 size=N/A time=00:05:30.83 bitrate=N/A speed=18.9x    frame= 8181 fps=454 q=-0.0 size=N/A time=00:05:41.21 bitrate=N/A speed=18.9x    frame= 8383 fps=452 q=-0.0 size=N/A time=00:05:49.64 bitrate=N/A speed=18.8x    frame= 8634 fps=453 q=-0.0 size=N/A time=00:06:00.10 bitrate=N/A speed=18.9x    frame= 8901 fps=454 q=-0.0 size=N/A time=00:06:11.24 bitrate=N/A speed=  19x    frame= 9160 fps=456 q=-0.0 size=N/A time=00:06:22.04 bitrate=N/A speed=  19x    frame= 9420 fps=457 q=-0.0 size=N/A time=00:06:32.89 bitrate=N/A speed=19.1x    frame= 9692 fps=459 q=-0.0 size=N/A time=00:06:44.23 bitrate=N/A speed=19.1x    frame= 9946 fps=459 q=-0.0 size=N/A time=00:06:54.83 bitrate=N/A speed=19.2x    frame=10194 fps=460 q=-0.0 size=N/A time=00:07:05.17 bitrate=N/A speed=19.2x    frame=10421 fps=459 q=-0.0 size=N/A time=00:07:14.64 bitrate=N/A speed=19.2x    frame=10668 fps=460 q=-0.0 size=N/A time=00:07:24.94 bitrate=N/A speed=19.2x    frame=10922 fps=461 q=-0.0 size=N/A time=00:07:35.53 bitrate=N/A speed=19.2x    frame=11187 fps=462 q=-0.0 size=N/A time=00:07:46.59 bitrate=N/A speed=19.3x    frame=11472 fps=463 q=-0.0 size=N/A time=00:07:58.47 bitrate=N/A speed=19.3x    frame=11756 fps=465 q=-0.0 size=N/A time=00:08:10.32 bitrate=N/A speed=19.4x    frame=12027 fps=466 q=-0.0 size=N/A time=00:08:21.62 bitrate=N/A speed=19.5x    frame=12311 fps=468 q=-0.0 size=N/A time=00:08:33.47 bitrate=N/A speed=19.5x    frame=12568 fps=468 q=-0.0 size=N/A time=00:08:44.19 bitrate=N/A speed=19.5x    frame=12833 fps=469 q=-0.0 size=N/A time=00:08:55.24 bitrate=N/A speed=19.6x    frame=13052 fps=468 q=-0.0 size=N/A time=00:09:04.37 bitrate=N/A speed=19.5x    frame=13292 fps=469 q=-0.0 size=N/A time=00:09:14.38 bitrate=N/A speed=19.5x    frame=13554 fps=469 q=-0.0 size=N/A time=00:09:25.31 bitrate=N/A speed=19.6x    frame=13810 fps=470 q=-0.0 size=N/A time=00:09:35.99 bitrate=N/A speed=19.6x    frame=14052 fps=470 q=-0.0 size=N/A time=00:09:46.08 bitrate=N/A speed=19.6x    frame=14315 fps=471 q=-0.0 size=N/A time=00:09:57.05 bitrate=N/A speed=19.6x    frame=14569 fps=471 q=-0.0 size=N/A time=00:10:07.64 bitrate=N/A speed=19.6x    frame=14823 fps=471 q=-0.0 size=N/A time=00:10:18.24 bitrate=N/A speed=19.7x    frame=15088 fps=472 q=-0.0 size=N/A time=00:10:29.29 bitrate=N/A speed=19.7x    frame=15311 fps=471 q=-0.0 size=N/A time=00:10:38.59 bitrate=N/A speed=19.7x    frame=15506 fps=470 q=-0.0 size=N/A time=00:10:46.72 bitrate=N/A speed=19.6x    frame=15787 fps=471 q=-0.0 size=N/A time=00:10:58.44 bitrate=N/A speed=19.6x    frame=16033 fps=471 q=-0.0 size=N/A time=00:11:08.70 bitrate=N/A speed=19.6x    frame=16262 fps=471 q=-0.0 size=N/A time=00:11:18.26 bitrate=N/A speed=19.6x    frame=16500 fps=470 q=-0.0 size=N/A time=00:11:28.18 bitrate=N/A speed=19.6x    frame=16767 fps=471 q=-0.0 size=N/A time=00:11:39.32 bitrate=N/A speed=19.7x    frame=17028 fps=472 q=-0.0 size=N/A time=00:11:50.20 bitrate=N/A speed=19.7x    frame=17279 fps=472 q=-0.0 size=N/A time=00:12:00.67 bitrate=N/A speed=19.7x    frame=17559 fps=473 q=-0.0 size=N/A time=00:12:12.35 bitrate=N/A speed=19.7x    frame=17836 fps=474 q=-0.0 size=N/A time=00:12:23.90 bitrate=N/A speed=19.8x    frame=18089 fps=474 q=-0.0 size=N/A time=00:12:34.46 bitrate=N/A speed=19.8x    frame=18348 fps=474 q=-0.0 size=N/A time=00:12:45.26 bitrate=N/A speed=19.8x    frame=18602 fps=475 q=-0.0 size=N/A time=00:12:55.85 bitrate=N/A speed=19.8x    frame=18855 fps=475 q=-0.0 size=N/A time=00:13:06.41 bitrate=N/A speed=19.8x    frame=19082 fps=474 q=-0.0 size=N/A time=00:13:15.87 bitrate=N/A speed=19.8x    frame=19364 fps=475 q=-0.0 size=N/A time=00:13:27.64 bitrate=N/A speed=19.8x    frame=19615 fps=475 q=-0.0 size=N/A time=00:13:38.10 bitrate=N/A speed=19.8x    frame=19834 fps=475 q=-0.0 size=N/A time=00:13:47.24 bitrate=N/A speed=19.8x    frame=20083 fps=475 q=-0.0 size=N/A time=00:13:57.62 bitrate=N/A speed=19.8x    frame=20331 fps=475 q=-0.0 size=N/A time=00:14:07.97 bitrate=N/A speed=19.8x    frame=20573 fps=475 q=-0.0 size=N/A time=00:14:18.06 bitrate=N/A speed=19.8x    frame=20803 fps=475 q=-0.0 size=N/A time=00:14:27.65 bitrate=N/A speed=19.8x    frame=21043 fps=475 q=-0.0 size=N/A time=00:14:37.66 bitrate=N/A speed=19.8x    frame=21298 fps=475 q=-0.0 size=N/A time=00:14:48.30 bitrate=N/A speed=19.8x    frame=21548 fps=475 q=-0.0 size=N/A time=00:14:58.73 bitrate=N/A speed=19.8x    frame=21770 fps=474 q=-0.0 size=N/A time=00:15:07.99 bitrate=N/A speed=19.8x    frame=21976 fps=473 q=-0.0 size=N/A time=00:15:16.58 bitrate=N/A speed=19.7x    frame=22179 fps=473 q=-0.0 size=N/A time=00:15:25.04 bitrate=N/A speed=19.7x    frame=22405 fps=472 q=-0.0 size=N/A time=00:15:34.47 bitrate=N/A speed=19.7x    frame=22615 fps=471 q=-0.0 size=N/A time=00:15:43.23 bitrate=N/A speed=19.7x    frame=22866 fps=472 q=-0.0 size=N/A time=00:15:53.70 bitrate=N/A speed=19.7x    frame=23127 fps=472 q=-0.0 size=N/A time=00:16:04.58 bitrate=N/A speed=19.7x    frame=23374 fps=472 q=-0.0 size=N/A time=00:16:14.89 bitrate=N/A speed=19.7x    frame=23654 fps=473 q=-0.0 size=N/A time=00:16:26.56 bitrate=N/A speed=19.7x    frame=23890 fps=473 q=-0.0 size=N/A time=00:16:36.41 bitrate=N/A speed=19.7x    frame=24098 fps=472 q=-0.0 size=N/A time=00:16:45.08 bitrate=N/A speed=19.7x    frame=24305 fps=471 q=-0.0 size=N/A time=00:16:53.72 bitrate=N/A speed=19.7x    frame=24554 fps=471 q=-0.0 size=N/A time=00:17:04.10 bitrate=N/A speed=19.7x    frame=24799 fps=471 q=-0.0 size=N/A time=00:17:14.32 bitrate=N/A speed=19.7x    frame=25033 fps=471 q=-0.0 size=N/A time=00:17:24.08 bitrate=N/A speed=19.6x    frame=25268 fps=471 q=-0.0 size=N/A time=00:17:33.88 bitrate=N/A speed=19.6x    frame=25536 fps=471 q=-0.0 size=N/A time=00:17:45.06 bitrate=N/A speed=19.7x    frame=25795 fps=472 q=-0.0 size=N/A time=00:17:55.86 bitrate=N/A speed=19.7x    frame=26014 fps=471 q=-0.0 size=N/A time=00:18:05.00 bitrate=N/A speed=19.7x    frame=26256 fps=471 q=-0.0 size=N/A time=00:18:15.09 bitrate=N/A speed=19.7x    frame=26503 fps=471 q=-0.0 size=N/A time=00:18:25.39 bitrate=N/A speed=19.7x    frame=26739 fps=471 q=-0.0 size=N/A time=00:18:35.23 bitrate=N/A speed=19.7x    frame=26918 fps=470 q=-0.0 size=N/A time=00:18:42.70 bitrate=N/A speed=19.6x    frame=27071 fps=469 q=-0.0 size=N/A time=00:18:49.08 bitrate=N/A speed=19.5x    frame=27322 fps=469 q=-0.0 size=N/A time=00:18:59.55 bitrate=N/A speed=19.5x    frame=27556 fps=469 q=-0.0 size=N/A time=00:19:09.31 bitrate=N/A speed=19.5x    frame=27767 fps=468 q=-0.0 size=N/A time=00:19:18.11 bitrate=N/A speed=19.5x    frame=27994 fps=468 q=-0.0 size=N/A time=00:19:27.58 bitrate=N/A speed=19.5x    frame=28247 fps=468 q=-0.0 size=N/A time=00:19:38.13 bitrate=N/A speed=19.5x    frame=28491 fps=468 q=-0.0 size=N/A time=00:19:48.31 bitrate=N/A speed=19.5x    frame=28719 fps=468 q=-0.0 size=N/A time=00:19:57.82 bitrate=N/A speed=19.5x    frame=28952 fps=468 q=-0.0 size=N/A time=00:20:07.53 bitrate=N/A speed=19.5x    frame=29198 fps=468 q=-0.0 size=N/A time=00:20:17.79 bitrate=N/A speed=19.5x    frame=29420 fps=468 q=-0.0 size=N/A time=00:20:27.05 bitrate=N/A speed=19.5x    frame=29660 fps=467 q=-0.0 size=N/A time=00:20:37.06 bitrate=N/A speed=19.5x    frame=29920 fps=468 q=-0.0 size=N/A time=00:20:47.91 bitrate=N/A speed=19.5x    frame=30170 fps=468 q=-0.0 size=N/A time=00:20:58.34 bitrate=N/A speed=19.5x    frame=30395 fps=468 q=-0.0 size=N/A time=00:21:07.72 bitrate=N/A speed=19.5x    frame=30626 fps=467 q=-0.0 size=N/A time=00:21:17.35 bitrate=N/A speed=19.5x    frame=30845 fps=467 q=-0.0 size=N/A time=00:21:26.49 bitrate=N/A speed=19.5x    frame=31109 fps=468 q=-0.0 size=N/A time=00:21:37.50 bitrate=N/A speed=19.5x    frame=31341 fps=467 q=-0.0 size=N/A time=00:21:47.18 bitrate=N/A speed=19.5x    frame=31600 fps=468 q=-0.0 size=N/A time=00:21:57.98 bitrate=N/A speed=19.5x    frame=31838 fps=468 q=-0.0 size=N/A time=00:22:07.90 bitrate=N/A speed=19.5x    frame=32094 fps=468 q=-0.0 size=N/A time=00:22:18.58 bitrate=N/A speed=19.5x    frame=32284 fps=467 q=-0.0 size=N/A time=00:22:26.51 bitrate=N/A speed=19.5x    frame=32517 fps=467 q=-0.0 size=N/A time=00:22:36.22 bitrate=N/A speed=19.5x    frame=32730 fps=467 q=-0.0 size=N/A time=00:22:45.11 bitrate=N/A speed=19.5x    frame=32891 fps=465 q=-0.0 size=N/A time=00:22:51.82 bitrate=N/A speed=19.4x    frame=33073 fps=465 q=-0.0 size=N/A time=00:22:59.41 bitrate=N/A speed=19.4x    frame=33270 fps=464 q=-0.0 size=N/A time=00:23:07.63 bitrate=N/A speed=19.4x    frame=33467 fps=463 q=-0.0 size=N/A time=00:23:15.85 bitrate=N/A speed=19.3x    frame=33626 fps=462 q=-0.0 size=N/A time=00:23:22.48 bitrate=N/A speed=19.3x    frame=33797 fps=461 q=-0.0 size=N/A time=00:23:29.61 bitrate=N/A speed=19.2x    frame=33962 fps=460 q=-0.0 size=N/A time=00:23:36.49 bitrate=N/A speed=19.2x    frame=34152 fps=460 q=-0.0 size=N/A time=00:23:44.42 bitrate=N/A speed=19.2x    frame=34370 fps=460 q=-0.0 size=N/A time=00:23:53.51 bitrate=N/A speed=19.2x    [Parsed_ssim_10 @ 0000021cfc58e840] SSIM Y:0.994157 (22.333469) U:0.992887 (21.479707) V:0.992247 (21.105084) All:0.993627 (21.956455)
[out#0/null @ 0000021cf4984e80] video:14851KiB audio:270324KiB subtitle:0KiB other streams:0KiB global headers:0KiB muxing overhead: unknown
frame=34562 fps=459 q=-0.0 Lsize=N/A time=00:24:01.52 bitrate=N/A speed=19.2x    
